<svg width="30" height="28" viewBox="0 0 30 28" fill="none" xmlns="http://www.w3.org/2000/svg">
<g id="Filtrar">
<path id="Rectangle 130" d="M0.05 5C0.05 2.26619 2.26619 0.05 5 0.05H25C27.7338 0.05 29.95 2.26619 29.95 5V23C29.95 25.7338 27.7338 27.95 25 27.95H5C2.26619 27.95 0.05 25.7338 0.05 23V5Z" fill="#D9D9D9" stroke="#858585" stroke-width="0.1"/>
<path id="Vector" d="M19.6781 16.929C20.8884 15.2772 21.4305 13.2292 21.1959 11.1949C20.9613 9.16048 19.9673 7.2897 18.4128 5.9568C16.8583 4.6239 14.8579 3.92718 12.8119 4.00603C10.7658 4.08488 8.82496 4.93348 7.37762 6.38206C5.93028 7.83065 5.08318 9.77238 5.00581 11.8188C4.92843 13.8652 5.62649 15.8654 6.96031 17.4191C8.29413 18.9729 10.1654 19.9657 12.1996 20.1988C14.2339 20.432 16.2812 19.8884 17.9319 18.6767H17.9306C17.9673 18.7267 18.0081 18.7746 18.0531 18.8205L22.8654 23.6335C23.0998 23.868 23.4178 23.9999 23.7493 24C24.0809 24.0001 24.399 23.8685 24.6335 23.6341C24.8681 23.3997 24.9999 23.0817 25 22.7501C25.0001 22.4184 24.8685 22.1004 24.6341 21.8658L19.8218 17.0528C19.7771 17.0075 19.7291 16.967 19.6781 16.929ZM20.0006 12.1235C20.0006 13.0265 19.8227 13.9205 19.4773 14.7547C19.1318 15.5889 18.6254 16.3469 17.987 16.9854C17.3486 17.6239 16.5907 18.1303 15.7567 18.4759C14.9226 18.8214 14.0286 18.9992 13.1258 18.9992C12.223 18.9992 11.329 18.8214 10.495 18.4759C9.66089 18.1303 8.90302 17.6239 8.26464 16.9854C7.62626 16.3469 7.11987 15.5889 6.77438 14.7547C6.4289 13.9205 6.25108 13.0265 6.25108 12.1235C6.25108 10.3 6.97538 8.55111 8.26464 7.26166C9.55391 5.97222 11.3025 5.24781 13.1258 5.24781C14.9491 5.24781 16.6977 5.97222 17.987 7.26166C19.2763 8.55111 20.0006 10.3 20.0006 12.1235Z" fill="black"/>
</g>
</svg>
