<?xml version="1.0" encoding="UTF-8"?>
<svg id="Camada_1" data-name="Camada 1" xmlns="http://www.w3.org/2000/svg" version="1.1" viewBox="0 0 831 304">
  <defs>
    <style>
      .cls-1 {
        fill: #fff;
        stroke-width: 0px;
      }
    </style>
  </defs>
  <g>
    <g>
      <g>
        <polygon class="cls-1" points="244.48 164.18 244.23 86.86 220.77 79.23 221.12 156.56 220.77 156.78 153.84 198.4 78.85 172.09 54.14 187.53 152.83 221.98 243.83 164.68 244.48 164.18"/>
        <polygon class="cls-1" points="194.67 151.11 194.66 150.87 194.29 96.16 170.83 88.53 171.2 143.31 158.36 150.98 128.14 141.15 103.62 156.61 139.39 168.24 156.78 174.54 194.33 151.32 194.67 151.11"/>
      </g>
      <polygon class="cls-1" points="294.8 182.04 294.42 61.76 270.96 54.14 271.33 174.34 271.33 174.34 235.46 198.34 183.48 232.64 206.94 240.27 207.09 240.17 240.13 250.71 263.91 235.01 230.69 224.6 253.65 209.45 253.7 209.46 258.92 205.97 261.31 204.39 261.29 204.38 294.71 182.02 294.8 182.04"/>
    </g>
    <path class="cls-1" d="M128.14,141.96"/>
  </g>
  <g>
    <path class="cls-1" d="M338.68,99.71c.18,0,.36.03.53.1.18.07.35.18.51.34l2.98,3.14c-1.3,1.71-2.94,2.99-4.91,3.86-1.96.87-4.29,1.3-6.97,1.3-2.46,0-4.67-.42-6.62-1.26-1.95-.84-3.6-2-4.96-3.47-1.36-1.48-2.4-3.23-3.13-5.25-.73-2.03-1.09-4.22-1.09-6.6s.39-4.64,1.18-6.66c.79-2.02,1.89-3.77,3.31-5.24,1.42-1.47,3.13-2.61,5.12-3.43,1.99-.82,4.17-1.22,6.56-1.22,1.22,0,2.36.11,3.44.32,1.08.22,2.08.51,3.01.89.93.38,1.79.83,2.58,1.37s1.48,1.11,2.09,1.74l-2.54,3.4c-.16.21-.36.4-.58.57-.22.17-.53.26-.93.26-.27,0-.52-.06-.76-.18-.24-.12-.49-.26-.76-.43-.27-.17-.56-.36-.88-.56-.32-.2-.7-.39-1.13-.56-.44-.17-.95-.31-1.54-.43-.59-.12-1.27-.18-2.06-.18-1.25,0-2.38.23-3.42.69s-1.92,1.13-2.67,2.01-1.33,1.97-1.74,3.25c-.41,1.28-.61,2.75-.61,4.39s.23,3.14.68,4.43c.45,1.29,1.07,2.38,1.85,3.26.78.88,1.69,1.55,2.73,2.01s2.15.69,3.34.69c.68,0,1.3-.03,1.87-.1.56-.07,1.09-.18,1.58-.33.49-.16.95-.36,1.38-.62.43-.26.87-.59,1.31-.99.18-.15.37-.27.58-.37.21-.1.42-.14.64-.14Z"/>
    <path class="cls-1" d="M377.95,91.88c0,2.34-.4,4.52-1.21,6.54s-1.95,3.77-3.42,5.26c-1.47,1.49-3.24,2.66-5.31,3.5-2.07.84-4.37,1.27-6.89,1.27s-4.82-.42-6.9-1.27c-2.08-.85-3.85-2.01-5.33-3.5-1.48-1.49-2.62-3.24-3.43-5.26s-1.21-4.2-1.21-6.54.4-4.52,1.21-6.54,1.95-3.77,3.43-5.25,3.25-2.65,5.33-3.49c2.08-.85,4.38-1.27,6.9-1.27s4.82.43,6.89,1.28c2.07.85,3.84,2.02,5.31,3.5,1.47,1.48,2.61,3.23,3.42,5.25.81,2.02,1.21,4.19,1.21,6.52ZM370.25,91.88c0-1.6-.21-3.04-.62-4.33-.42-1.28-1.01-2.37-1.79-3.26-.78-.89-1.73-1.57-2.86-2.05-1.13-.47-2.41-.71-3.85-.71s-2.75.24-3.88.71-2.09,1.16-2.87,2.05-1.38,1.98-1.79,3.26c-.42,1.28-.62,2.73-.62,4.33s.21,3.07.62,4.35c.42,1.28,1.01,2.37,1.79,3.26.78.89,1.74,1.57,2.87,2.04,1.13.47,2.43.7,3.88.7s2.72-.23,3.85-.7c1.13-.47,2.08-1.15,2.86-2.04.78-.89,1.38-1.98,1.79-3.26.42-1.28.62-2.73.62-4.35Z"/>
    <path class="cls-1" d="M419.71,75.68v32.42h-6.63v-18.65c0-.43.01-.9.03-1.4.02-.5.06-1.02.12-1.54l-8.61,16.67c-.27.52-.63.91-1.08,1.18s-.97.4-1.55.4h-1.02c-.58,0-1.09-.13-1.55-.4s-.81-.66-1.08-1.18l-8.61-16.71c.04.53.08,1.06.11,1.57.03.51.04.98.04,1.41v18.65h-6.63v-32.42h5.74c.33,0,.61,0,.86.02.25.02.46.06.66.13s.37.19.52.34c.16.16.31.38.46.66l8.34,16.44c.3.56.58,1.15.86,1.76s.54,1.23.79,1.87c.25-.65.51-1.29.79-1.91s.57-1.22.88-1.78l8.32-16.38c.15-.28.3-.5.46-.66s.33-.27.52-.34.41-.12.66-.13c.25-.01.53-.02.86-.02h5.74Z"/>
    <path class="cls-1" d="M434.44,108.1h-7.56v-32.42h7.56v32.42Z"/>
    <path class="cls-1" d="M459.52,82.27c-.22.36-.46.62-.7.8-.25.18-.56.27-.95.27-.34,0-.71-.11-1.1-.32-.39-.21-.84-.46-1.33-.72-.5-.27-1.06-.51-1.7-.72s-1.37-.32-2.18-.32c-1.41,0-2.46.3-3.15.9s-1.03,1.41-1.03,2.44c0,.65.21,1.19.62,1.62.42.43.96.8,1.63,1.11.67.31,1.45.6,2.31.86.87.26,1.75.55,2.66.87.91.32,1.79.69,2.66,1.12.87.43,1.64.98,2.31,1.65.67.67,1.22,1.48,1.63,2.44.42.96.62,2.11.62,3.46,0,1.5-.26,2.9-.78,4.21-.52,1.31-1.27,2.44-2.26,3.42s-2.2,1.74-3.65,2.29c-1.45.56-3.09.83-4.93.83-1.01,0-2.04-.1-3.08-.31-1.04-.21-2.06-.5-3.04-.88-.98-.38-1.9-.83-2.76-1.35s-1.61-1.1-2.25-1.74l2.22-3.52c.18-.25.41-.46.7-.63.29-.17.6-.26.95-.26.45,0,.89.14,1.35.42.45.28.96.59,1.54.93.57.34,1.23.65,1.97.93.74.28,1.62.42,2.63.42,1.36,0,2.42-.3,3.18-.9.76-.6,1.13-1.55,1.13-2.86,0-.76-.21-1.37-.62-1.85s-.96-.87-1.64-1.18-1.44-.59-2.3-.82-1.74-.5-2.65-.79c-.91-.29-1.79-.65-2.65-1.07-.86-.42-1.63-.98-2.3-1.67-.67-.69-1.22-1.55-1.63-2.58-.42-1.03-.62-2.3-.62-3.82,0-1.22.24-2.4.73-3.56.49-1.16,1.21-2.19,2.16-3.09.95-.9,2.11-1.63,3.49-2.17,1.38-.54,2.96-.81,4.74-.81.99,0,1.96.08,2.9.23.94.16,1.84.39,2.68.69.84.3,1.63.67,2.37,1.09s1.39.9,1.97,1.43l-1.87,3.49Z"/>
    <path class="cls-1" d="M485.06,82.27c-.22.36-.46.62-.7.8-.25.18-.56.27-.95.27-.34,0-.71-.11-1.1-.32-.39-.21-.84-.46-1.33-.72-.5-.27-1.06-.51-1.7-.72s-1.37-.32-2.18-.32c-1.41,0-2.46.3-3.15.9s-1.03,1.41-1.03,2.44c0,.65.21,1.19.62,1.62.42.43.96.8,1.63,1.11.67.31,1.45.6,2.31.86.87.26,1.75.55,2.66.87.91.32,1.79.69,2.66,1.12.87.43,1.64.98,2.31,1.65.67.67,1.22,1.48,1.63,2.44.42.96.62,2.11.62,3.46,0,1.5-.26,2.9-.78,4.21-.52,1.31-1.27,2.44-2.26,3.42s-2.2,1.74-3.65,2.29c-1.45.56-3.09.83-4.93.83-1.01,0-2.04-.1-3.08-.31-1.04-.21-2.06-.5-3.04-.88-.98-.38-1.9-.83-2.76-1.35s-1.61-1.1-2.25-1.74l2.22-3.52c.18-.25.41-.46.7-.63.29-.17.6-.26.95-.26.45,0,.89.14,1.35.42.45.28.96.59,1.54.93.57.34,1.23.65,1.97.93.74.28,1.62.42,2.63.42,1.36,0,2.42-.3,3.18-.9.76-.6,1.13-1.55,1.13-2.86,0-.76-.21-1.37-.62-1.85s-.96-.87-1.64-1.18-1.44-.59-2.3-.82-1.74-.5-2.65-.79c-.91-.29-1.79-.65-2.65-1.07-.86-.42-1.63-.98-2.3-1.67-.67-.69-1.22-1.55-1.63-2.58-.42-1.03-.62-2.3-.62-3.82,0-1.22.24-2.4.73-3.56.49-1.16,1.21-2.19,2.16-3.09.95-.9,2.11-1.63,3.49-2.17,1.38-.54,2.96-.81,4.74-.81.99,0,1.96.08,2.9.23.94.16,1.84.39,2.68.69.84.3,1.63.67,2.37,1.09s1.39.9,1.97,1.43l-1.87,3.49Z"/>
    <path class="cls-1" d="M500.26,108.1h-7.56v-32.42h7.56v32.42Z"/>
    <path class="cls-1" d="M539.24,91.88c0,2.34-.4,4.52-1.21,6.54s-1.95,3.77-3.42,5.26c-1.47,1.49-3.24,2.66-5.31,3.5-2.07.84-4.37,1.27-6.89,1.27s-4.82-.42-6.9-1.27c-2.08-.85-3.85-2.01-5.33-3.5-1.48-1.49-2.62-3.24-3.43-5.26s-1.21-4.2-1.21-6.54.4-4.52,1.21-6.54,1.95-3.77,3.43-5.25,3.25-2.65,5.33-3.49c2.08-.85,4.38-1.27,6.9-1.27s4.82.43,6.89,1.28c2.07.85,3.84,2.02,5.31,3.5,1.47,1.48,2.61,3.23,3.42,5.25.81,2.02,1.21,4.19,1.21,6.52ZM531.54,91.88c0-1.6-.21-3.04-.62-4.33-.42-1.28-1.01-2.37-1.79-3.26-.78-.89-1.73-1.57-2.86-2.05-1.13-.47-2.41-.71-3.85-.71s-2.75.24-3.88.71-2.09,1.16-2.87,2.05-1.38,1.98-1.79,3.26c-.42,1.28-.62,2.73-.62,4.33s.21,3.07.62,4.35c.42,1.28,1.01,2.37,1.79,3.26.78.89,1.74,1.57,2.87,2.04,1.13.47,2.43.7,3.88.7s2.72-.23,3.85-.7c1.13-.47,2.08-1.15,2.86-2.04.78-.89,1.38-1.98,1.79-3.26.42-1.28.62-2.73.62-4.35Z"/>
    <path class="cls-1" d="M572.86,75.68v32.42h-3.92c-.58,0-1.06-.09-1.46-.28-.39-.19-.78-.51-1.17-.97l-15.29-19.33c.06.58.1,1.14.12,1.68.02.54.03,1.05.03,1.52v17.38h-6.63v-32.42h3.96c.33,0,.6.02.82.04.22.03.42.09.6.17.18.08.35.2.51.34s.35.35.56.6l15.42,19.47c-.07-.62-.13-1.23-.16-1.81-.03-.59-.04-1.14-.04-1.66v-17.16h6.63Z"/>
    <path class="cls-1" d="M609.1,108.1h-5.83c-.65,0-1.18-.15-1.58-.46s-.7-.69-.91-1.17l-1.91-5.65h-12.33l-1.91,5.65c-.16.42-.46.79-.88,1.12s-.95.5-1.57.5h-5.87l12.55-32.42h7.7l12.55,32.42ZM597.15,95.71l-3-8.88c-.22-.56-.46-1.23-.71-1.99-.25-.76-.5-1.59-.76-2.48-.22.9-.46,1.74-.71,2.51-.25.77-.49,1.44-.71,2l-2.98,8.83h8.88Z"/>
    <path class="cls-1" d="M649,75.68v32.42h-6.63v-18.65c0-.43.01-.9.03-1.4.02-.5.06-1.02.12-1.54l-8.61,16.67c-.27.52-.63.91-1.08,1.18s-.97.4-1.55.4h-1.02c-.58,0-1.09-.13-1.55-.4s-.81-.66-1.08-1.18l-8.61-16.71c.04.53.08,1.06.11,1.57.03.51.04.98.04,1.41v18.65h-6.63v-32.42h5.74c.33,0,.61,0,.86.02.25.02.46.06.66.13s.37.19.52.34c.16.16.31.38.46.66l8.34,16.44c.3.56.58,1.15.86,1.76s.54,1.23.79,1.87c.25-.65.51-1.29.79-1.91s.57-1.22.88-1.78l8.32-16.38c.15-.28.3-.5.46-.66s.33-.27.52-.34.41-.12.66-.13c.25-.01.53-.02.86-.02h5.74Z"/>
    <path class="cls-1" d="M663.73,81.47v7.57h10.19v5.56h-10.19v7.72h13.31v5.79h-20.87v-32.42h20.87v5.79h-13.31Z"/>
    <path class="cls-1" d="M710.85,75.68v32.42h-3.92c-.58,0-1.06-.09-1.46-.28-.39-.19-.78-.51-1.17-.97l-15.29-19.33c.06.58.1,1.14.12,1.68.02.54.03,1.05.03,1.52v17.38h-6.63v-32.42h3.96c.33,0,.6.02.82.04.22.03.42.09.6.17.18.08.35.2.51.34s.35.35.56.6l15.42,19.47c-.07-.62-.13-1.23-.16-1.81-.03-.59-.04-1.14-.04-1.66v-17.16h6.63Z"/>
    <path class="cls-1" d="M741.31,81.65h-9.12v26.46h-7.52v-26.46h-9.12v-5.96h25.76v5.96Z"/>
    <path class="cls-1" d="M777.07,91.88c0,2.34-.4,4.52-1.21,6.54s-1.95,3.77-3.42,5.26c-1.47,1.49-3.24,2.66-5.31,3.5-2.07.84-4.37,1.27-6.89,1.27s-4.82-.42-6.9-1.27c-2.08-.85-3.85-2.01-5.33-3.5-1.48-1.49-2.62-3.24-3.43-5.26s-1.21-4.2-1.21-6.54.4-4.52,1.21-6.54,1.95-3.77,3.43-5.25,3.25-2.65,5.33-3.49c2.08-.85,4.38-1.27,6.9-1.27s4.82.43,6.89,1.28c2.07.85,3.84,2.02,5.31,3.5,1.47,1.48,2.61,3.23,3.42,5.25.81,2.02,1.21,4.19,1.21,6.52ZM769.37,91.88c0-1.6-.21-3.04-.62-4.33-.42-1.28-1.01-2.37-1.79-3.26-.78-.89-1.73-1.57-2.86-2.05-1.13-.47-2.41-.71-3.85-.71s-2.75.24-3.88.71-2.09,1.16-2.87,2.05-1.38,1.98-1.79,3.26c-.42,1.28-.62,2.73-.62,4.33s.21,3.07.62,4.35c.42,1.28,1.01,2.37,1.79,3.26.78.89,1.74,1.57,2.87,2.04,1.13.47,2.43.7,3.88.7s2.72-.23,3.85-.7c1.13-.47,2.08-1.15,2.86-2.04.78-.89,1.38-1.98,1.79-3.26.42-1.28.62-2.73.62-4.35Z"/>
    <path class="cls-1" d="M346.24,145.28c0,2.34-.4,4.5-1.21,6.49s-1.95,3.69-3.42,5.14-3.24,2.57-5.31,3.38-4.37,1.21-6.89,1.21h-12.59v-32.42h12.59c2.52,0,4.82.41,6.89,1.22,2.07.82,3.84,1.94,5.31,3.38,1.47,1.44,2.61,3.15,3.42,5.13s1.21,4.13,1.21,6.46ZM338.55,145.28c0-1.6-.21-3.05-.62-4.34-.42-1.29-1.01-2.38-1.79-3.28-.78-.9-1.73-1.59-2.86-2.07-1.13-.48-2.41-.72-3.85-.72h-5.03v20.85h5.03c1.44,0,2.72-.24,3.85-.72,1.13-.48,2.08-1.17,2.86-2.07.78-.9,1.38-1.99,1.79-3.28.42-1.29.62-2.74.62-4.36Z"/>
    <path class="cls-1" d="M359.15,161.5h-7.56v-32.42h7.56v32.42Z"/>
    <path class="cls-1" d="M381.89,144.7h11.53v13.68c-1.66,1.22-3.43,2.1-5.31,2.65-1.88.55-3.84.82-5.88.82-2.67,0-5.1-.42-7.29-1.26-2.19-.84-4.06-1.99-5.62-3.47-1.56-1.48-2.76-3.23-3.6-5.25-.84-2.02-1.27-4.22-1.27-6.6s.4-4.64,1.2-6.66,1.95-3.77,3.44-5.24c1.49-1.47,3.29-2.61,5.41-3.43,2.11-.82,4.48-1.22,7.09-1.22,1.35,0,2.62.11,3.8.33s2.28.53,3.28.91c1,.39,1.92.85,2.75,1.38.83.53,1.57,1.11,2.22,1.74l-2.18,3.32c-.34.52-.78.84-1.32.96-.54.12-1.12-.01-1.75-.4-.59-.36-1.15-.66-1.68-.92s-1.06-.47-1.61-.63-1.13-.28-1.74-.36-1.29-.11-2.05-.11c-1.41,0-2.68.25-3.8.75-1.13.5-2.09,1.2-2.88,2.1-.79.9-1.41,1.99-1.83,3.26-.43,1.27-.65,2.68-.65,4.24,0,1.72.24,3.25.71,4.58s1.15,2.46,2.01,3.38c.87.92,1.91,1.62,3.12,2.1,1.21.48,2.55.72,4.02.72.91,0,1.72-.09,2.46-.27.73-.18,1.45-.42,2.15-.71v-4.92h-3.2c-.48,0-.85-.13-1.11-.38-.27-.25-.4-.57-.4-.96v-4.14Z"/>
    <path class="cls-1" d="M406.92,161.5h-7.56v-32.42h7.56v32.42Z"/>
    <path class="cls-1" d="M437.38,135.04h-9.12v26.46h-7.52v-26.46h-9.12v-5.96h25.76v5.96Z"/>
    <path class="cls-1" d="M467.99,161.5h-5.83c-.65,0-1.18-.15-1.58-.46-.4-.3-.7-.69-.91-1.17l-1.91-5.65h-12.33l-1.91,5.65c-.16.42-.46.79-.88,1.12-.42.33-.95.5-1.57.5h-5.87l12.55-32.42h7.7l12.55,32.42ZM456.04,149.11l-3-8.88c-.22-.56-.46-1.23-.71-1.99-.25-.76-.5-1.59-.76-2.48-.22.91-.46,1.74-.71,2.51-.25.77-.49,1.44-.71,2l-2.98,8.83h8.88Z"/>
    <path class="cls-1" d="M490.98,155.49v6.01h-19.54v-32.42h7.52v26.41h12.01Z"/>
  </g>
</svg>